<svg width="24" height="24" viewBox="0 0 36 36" xmlns="http://www.w3.org/2000/svg">
  <path fill="#DE2910" d="M36 27a4 4 0 0 1-4 4H4a4 4 0 0 1-4-4V9a4 4 0 0 1 4-4h28a4 4 0 0 1 4 4v18z"/>
  <path fill="#FFDE00" d="m12.8 8.6l2 4l4.4.6l-3.2 3.1l.8 4.4l-4-2.1l-4 2.1l.8-4.4l-3.2-3.1l4.4-.6z"/>
  <path fill="#FFDE00" d="m21 8l1 2l2.2.3l-1.6 1.6l.4 2.2l-2-1l-2 1l.4-2.2l-1.6-1.6l2.2-.3z"/>
  <path fill="#FFDE00" d="m24 11l1 2l2.2.3l-1.6 1.6l.4 2.2l-2-1l-2 1l.4-2.2l-1.6-1.6l2.2-.3z"/>
  <path fill="#FFDE00" d="m24 15l1 2l2.2.3l-1.6 1.6l.4 2.2l-2-1l-2 1l.4-2.2l-1.6-1.6l2.2-.3z"/>
  <path fill="#FFDE00" d="m21 18l1 2l2.2.3l-1.6 1.6l.4 2.2l-2-1l-2 1l.4-2.2l-1.6-1.6l2.2-.3z"/>
</svg>