<?xml version="1.0" encoding="UTF-8"?>
<svg width="128" height="128" viewBox="0 0 128 128" fill="none" xmlns="http://www.w3.org/2000/svg">
  <rect width="128" height="128" rx="24" fill="#2C5EE6"/>
  <path d="M64 28C43.0132 28 26 45.0132 26 66C26 86.9868 43.0132 104 64 104C84.9868 104 102 86.9868 102 66C102 45.0132 84.9868 28 64 28ZM64 40C78.3594 40 90 51.6406 90 66C90 80.3594 78.3594 92 64 92C49.6406 92 38 80.3594 38 66C38 51.6406 49.6406 40 64 40Z" fill="white"/>
  <path d="M64 52C56.268 52 50 58.268 50 66C50 73.732 56.268 80 64 80C71.732 80 78 73.732 78 66C78 58.268 71.732 52 64 52ZM64 60C67.3137 60 70 62.6863 70 66C70 69.3137 67.3137 72 64 72C60.6863 72 58 69.3137 58 66C58 62.6863 60.6863 60 64 60Z" fill="white"/>
  <path d="M64 48C54.0589 48 46 56.0589 46 66C46 75.9411 54.0589 84 64 84C73.9411 84 82 75.9411 82 66C82 56.0589 73.9411 48 64 48ZM64 56C69.5228 56 74 60.4772 74 66C74 71.5228 69.5228 76 64 76C58.4772 76 54 71.5228 54 66C54 60.4772 58.4772 56 64 56Z" fill="#A4BFFF"/>
</svg>